<mxfile host="app.diagrams.net" modified="2023-12-20T07:28:14.029Z" agent="Mozilla/5.0 (X11; Linux x86_64) AppleWebKit/537.36 (KHTML, like Gecko) Chrome/120.0.0.0 Safari/537.36" etag="PTa1Vjdc076rfq5j82KF" version="22.1.11" type="device">
  <diagram name="Страница — 1" id="xh0iFojx3m7JygpoVQmP">
    <mxGraphModel dx="1586" dy="828" grid="1" gridSize="10" guides="1" tooltips="1" connect="1" arrows="1" fold="1" page="1" pageScale="1" pageWidth="827" pageHeight="1169" math="0" shadow="0">
      <root>
        <mxCell id="0" />
        <mxCell id="1" parent="0" />
        <mxCell id="c_q4qK2sxFbwqmgh3Mws-23" style="edgeStyle=orthogonalEdgeStyle;rounded=0;orthogonalLoop=1;jettySize=auto;html=1;entryX=0.5;entryY=0;entryDx=0;entryDy=0;" edge="1" parent="1" source="c_q4qK2sxFbwqmgh3Mws-1" target="c_q4qK2sxFbwqmgh3Mws-2">
          <mxGeometry relative="1" as="geometry" />
        </mxCell>
        <mxCell id="c_q4qK2sxFbwqmgh3Mws-1" value="queue_insert&lt;br&gt;_after_word" style="ellipse;whiteSpace=wrap;html=1;" vertex="1" parent="1">
          <mxGeometry x="340" y="40" width="120" height="80" as="geometry" />
        </mxCell>
        <mxCell id="c_q4qK2sxFbwqmgh3Mws-21" style="edgeStyle=orthogonalEdgeStyle;rounded=0;orthogonalLoop=1;jettySize=auto;html=1;entryX=0.5;entryY=0;entryDx=0;entryDy=0;" edge="1" parent="1" source="c_q4qK2sxFbwqmgh3Mws-2" target="c_q4qK2sxFbwqmgh3Mws-3">
          <mxGeometry relative="1" as="geometry" />
        </mxCell>
        <mxCell id="c_q4qK2sxFbwqmgh3Mws-2" value="queue&lt;br&gt;str&lt;br&gt;str2&lt;br&gt;current = queue-&amp;gt;head" style="rounded=0;whiteSpace=wrap;html=1;" vertex="1" parent="1">
          <mxGeometry x="330" y="160" width="140" height="60" as="geometry" />
        </mxCell>
        <mxCell id="c_q4qK2sxFbwqmgh3Mws-13" style="edgeStyle=orthogonalEdgeStyle;rounded=0;orthogonalLoop=1;jettySize=auto;html=1;entryX=0.5;entryY=0;entryDx=0;entryDy=0;" edge="1" parent="1" source="c_q4qK2sxFbwqmgh3Mws-3" target="c_q4qK2sxFbwqmgh3Mws-12">
          <mxGeometry relative="1" as="geometry" />
        </mxCell>
        <mxCell id="c_q4qK2sxFbwqmgh3Mws-24" style="edgeStyle=orthogonalEdgeStyle;rounded=0;orthogonalLoop=1;jettySize=auto;html=1;entryX=0.5;entryY=0;entryDx=0;entryDy=0;" edge="1" parent="1" source="c_q4qK2sxFbwqmgh3Mws-3" target="c_q4qK2sxFbwqmgh3Mws-4">
          <mxGeometry relative="1" as="geometry" />
        </mxCell>
        <mxCell id="c_q4qK2sxFbwqmgh3Mws-3" value="current" style="rhombus;whiteSpace=wrap;html=1;" vertex="1" parent="1">
          <mxGeometry x="335" y="250" width="130" height="80" as="geometry" />
        </mxCell>
        <mxCell id="c_q4qK2sxFbwqmgh3Mws-10" style="edgeStyle=orthogonalEdgeStyle;rounded=0;orthogonalLoop=1;jettySize=auto;html=1;entryX=0.5;entryY=0;entryDx=0;entryDy=0;" edge="1" parent="1" source="c_q4qK2sxFbwqmgh3Mws-4" target="c_q4qK2sxFbwqmgh3Mws-5">
          <mxGeometry relative="1" as="geometry" />
        </mxCell>
        <mxCell id="c_q4qK2sxFbwqmgh3Mws-14" style="edgeStyle=orthogonalEdgeStyle;rounded=0;orthogonalLoop=1;jettySize=auto;html=1;entryX=0.5;entryY=0;entryDx=0;entryDy=0;" edge="1" parent="1" source="c_q4qK2sxFbwqmgh3Mws-4" target="c_q4qK2sxFbwqmgh3Mws-11">
          <mxGeometry relative="1" as="geometry" />
        </mxCell>
        <mxCell id="c_q4qK2sxFbwqmgh3Mws-4" value="!strcmp(current-&amp;gt;c,str)" style="rhombus;whiteSpace=wrap;html=1;" vertex="1" parent="1">
          <mxGeometry x="510" y="360" width="130" height="80" as="geometry" />
        </mxCell>
        <mxCell id="c_q4qK2sxFbwqmgh3Mws-9" style="edgeStyle=orthogonalEdgeStyle;rounded=0;orthogonalLoop=1;jettySize=auto;html=1;entryX=0.5;entryY=0;entryDx=0;entryDy=0;" edge="1" parent="1" source="c_q4qK2sxFbwqmgh3Mws-5" target="c_q4qK2sxFbwqmgh3Mws-6">
          <mxGeometry relative="1" as="geometry" />
        </mxCell>
        <mxCell id="c_q4qK2sxFbwqmgh3Mws-5" value="new = calloc(1, sizeof(String))&lt;br&gt;new-&amp;gt;c = strdup(str2)" style="shape=process;whiteSpace=wrap;html=1;backgroundOutline=1;" vertex="1" parent="1">
          <mxGeometry x="660" y="480" width="120" height="60" as="geometry" />
        </mxCell>
        <mxCell id="c_q4qK2sxFbwqmgh3Mws-8" style="edgeStyle=orthogonalEdgeStyle;rounded=0;orthogonalLoop=1;jettySize=auto;html=1;entryX=0.5;entryY=0;entryDx=0;entryDy=0;" edge="1" parent="1" source="c_q4qK2sxFbwqmgh3Mws-6" target="c_q4qK2sxFbwqmgh3Mws-7">
          <mxGeometry relative="1" as="geometry" />
        </mxCell>
        <mxCell id="c_q4qK2sxFbwqmgh3Mws-6" value="new-&amp;gt;next = current-&amp;gt;next&lt;br&gt;current-&amp;gt;next = new" style="rounded=0;whiteSpace=wrap;html=1;" vertex="1" parent="1">
          <mxGeometry x="660" y="570" width="120" height="60" as="geometry" />
        </mxCell>
        <mxCell id="c_q4qK2sxFbwqmgh3Mws-7" value="end" style="ellipse;whiteSpace=wrap;html=1;" vertex="1" parent="1">
          <mxGeometry x="660" y="660" width="120" height="80" as="geometry" />
        </mxCell>
        <mxCell id="c_q4qK2sxFbwqmgh3Mws-11" value="current = current-&amp;gt;next" style="rounded=0;whiteSpace=wrap;html=1;" vertex="1" parent="1">
          <mxGeometry x="345" y="480" width="120" height="60" as="geometry" />
        </mxCell>
        <mxCell id="c_q4qK2sxFbwqmgh3Mws-12" value="end" style="ellipse;whiteSpace=wrap;html=1;" vertex="1" parent="1">
          <mxGeometry x="160" y="360" width="120" height="80" as="geometry" />
        </mxCell>
        <mxCell id="c_q4qK2sxFbwqmgh3Mws-18" value="" style="endArrow=none;html=1;rounded=0;" edge="1" parent="1">
          <mxGeometry width="50" height="50" relative="1" as="geometry">
            <mxPoint x="400" y="760" as="sourcePoint" />
            <mxPoint x="400" y="540" as="targetPoint" />
          </mxGeometry>
        </mxCell>
        <mxCell id="c_q4qK2sxFbwqmgh3Mws-19" value="" style="endArrow=none;html=1;rounded=0;" edge="1" parent="1">
          <mxGeometry width="50" height="50" relative="1" as="geometry">
            <mxPoint x="400" y="760" as="sourcePoint" />
            <mxPoint x="800" y="760" as="targetPoint" />
          </mxGeometry>
        </mxCell>
        <mxCell id="c_q4qK2sxFbwqmgh3Mws-20" value="" style="endArrow=none;html=1;rounded=0;" edge="1" parent="1">
          <mxGeometry width="50" height="50" relative="1" as="geometry">
            <mxPoint x="800" y="760" as="sourcePoint" />
            <mxPoint x="800" y="240" as="targetPoint" />
          </mxGeometry>
        </mxCell>
        <mxCell id="c_q4qK2sxFbwqmgh3Mws-22" value="" style="endArrow=classic;html=1;rounded=0;" edge="1" parent="1">
          <mxGeometry width="50" height="50" relative="1" as="geometry">
            <mxPoint x="800" y="240" as="sourcePoint" />
            <mxPoint x="400" y="240" as="targetPoint" />
          </mxGeometry>
        </mxCell>
        <mxCell id="c_q4qK2sxFbwqmgh3Mws-25" value="True" style="text;html=1;strokeColor=none;fillColor=none;align=center;verticalAlign=middle;whiteSpace=wrap;rounded=0;" vertex="1" parent="1">
          <mxGeometry x="480" y="260" width="60" height="30" as="geometry" />
        </mxCell>
        <mxCell id="c_q4qK2sxFbwqmgh3Mws-26" value="True" style="text;html=1;strokeColor=none;fillColor=none;align=center;verticalAlign=middle;whiteSpace=wrap;rounded=0;" vertex="1" parent="1">
          <mxGeometry x="650" y="370" width="60" height="30" as="geometry" />
        </mxCell>
        <mxCell id="c_q4qK2sxFbwqmgh3Mws-27" value="1" style="text;html=1;strokeColor=none;fillColor=none;align=center;verticalAlign=middle;whiteSpace=wrap;rounded=0;" vertex="1" parent="1">
          <mxGeometry x="190" width="60" height="30" as="geometry" />
        </mxCell>
        <mxCell id="c_q4qK2sxFbwqmgh3Mws-28" value="2" style="text;html=1;strokeColor=none;fillColor=none;align=center;verticalAlign=middle;whiteSpace=wrap;rounded=0;" vertex="1" parent="1">
          <mxGeometry x="370" width="60" height="30" as="geometry" />
        </mxCell>
        <mxCell id="c_q4qK2sxFbwqmgh3Mws-30" value="3" style="text;html=1;strokeColor=none;fillColor=none;align=center;verticalAlign=middle;whiteSpace=wrap;rounded=0;" vertex="1" parent="1">
          <mxGeometry x="545" width="60" height="30" as="geometry" />
        </mxCell>
        <mxCell id="c_q4qK2sxFbwqmgh3Mws-31" value="4" style="text;html=1;strokeColor=none;fillColor=none;align=center;verticalAlign=middle;whiteSpace=wrap;rounded=0;" vertex="1" parent="1">
          <mxGeometry x="690" width="60" height="30" as="geometry" />
        </mxCell>
        <mxCell id="c_q4qK2sxFbwqmgh3Mws-32" value="A" style="text;html=1;strokeColor=none;fillColor=none;align=center;verticalAlign=middle;whiteSpace=wrap;rounded=0;" vertex="1" parent="1">
          <mxGeometry x="80" y="65" width="60" height="30" as="geometry" />
        </mxCell>
        <mxCell id="c_q4qK2sxFbwqmgh3Mws-33" value="B" style="text;html=1;strokeColor=none;fillColor=none;align=center;verticalAlign=middle;whiteSpace=wrap;rounded=0;" vertex="1" parent="1">
          <mxGeometry x="80" y="175" width="60" height="30" as="geometry" />
        </mxCell>
        <mxCell id="c_q4qK2sxFbwqmgh3Mws-34" value="C" style="text;html=1;strokeColor=none;fillColor=none;align=center;verticalAlign=middle;whiteSpace=wrap;rounded=0;" vertex="1" parent="1">
          <mxGeometry x="80" y="275" width="60" height="30" as="geometry" />
        </mxCell>
        <mxCell id="c_q4qK2sxFbwqmgh3Mws-35" value="D" style="text;html=1;strokeColor=none;fillColor=none;align=center;verticalAlign=middle;whiteSpace=wrap;rounded=0;" vertex="1" parent="1">
          <mxGeometry x="80" y="385" width="60" height="30" as="geometry" />
        </mxCell>
        <mxCell id="c_q4qK2sxFbwqmgh3Mws-36" value="E" style="text;html=1;strokeColor=none;fillColor=none;align=center;verticalAlign=middle;whiteSpace=wrap;rounded=0;" vertex="1" parent="1">
          <mxGeometry x="80" y="495" width="60" height="30" as="geometry" />
        </mxCell>
        <mxCell id="c_q4qK2sxFbwqmgh3Mws-37" value="F" style="text;html=1;strokeColor=none;fillColor=none;align=center;verticalAlign=middle;whiteSpace=wrap;rounded=0;" vertex="1" parent="1">
          <mxGeometry x="80" y="585" width="60" height="30" as="geometry" />
        </mxCell>
        <mxCell id="c_q4qK2sxFbwqmgh3Mws-38" value="G" style="text;html=1;strokeColor=none;fillColor=none;align=center;verticalAlign=middle;whiteSpace=wrap;rounded=0;" vertex="1" parent="1">
          <mxGeometry x="80" y="685" width="60" height="30" as="geometry" />
        </mxCell>
      </root>
    </mxGraphModel>
  </diagram>
</mxfile>
